<?xml version="1.0" encoding="UTF-8" standalone="no"?>
<!-- Created with Inkscape (http://www.inkscape.org/) -->

<svg
   width="25.4mm"
   height="25.4mm"
   viewBox="0 0 25.4 25.4"
   version="1.1"
   id="svg1"
   xml:space="preserve"
   inkscape:version="1.3.2 (091e20e, 2023-11-25, custom)"
   sodipodi:docname="facebook.svg"
   xmlns:inkscape="http://www.inkscape.org/namespaces/inkscape"
   xmlns:sodipodi="http://sodipodi.sourceforge.net/DTD/sodipodi-0.dtd"
   xmlns="http://www.w3.org/2000/svg"
   xmlns:svg="http://www.w3.org/2000/svg"><sodipodi:namedview
     id="namedview1"
     pagecolor="#505050"
     bordercolor="#eeeeee"
     borderopacity="1"
     inkscape:showpageshadow="0"
     inkscape:pageopacity="0"
     inkscape:pagecheckerboard="0"
     inkscape:deskcolor="#d1d1d1"
     inkscape:document-units="mm"
     inkscape:zoom="5.6568543"
     inkscape:cx="41.100582"
     inkscape:cy="49.939416"
     inkscape:window-width="1920"
     inkscape:window-height="991"
     inkscape:window-x="-9"
     inkscape:window-y="-9"
     inkscape:window-maximized="1"
     inkscape:current-layer="layer1" /><defs
     id="defs1" /><g
     inkscape:label="Layer 1"
     inkscape:groupmode="layer"
     id="layer1"
     transform="translate(-87.150574,-112.76061)"><g
       id="g16"
       transform="matrix(1.5150962,0,0,1.5085953,-40.4058,-65.443308)"
       style="fill:#000000;fill-opacity:1"><path
         style="fill:#000000;fill-opacity:1"
         d="m 85.881309,134.82916 c -0.245901,-0.0483 -0.722151,-0.37501 -1.058333,-0.72591 -0.611241,-0.63799 -0.611241,-0.63799 -0.611241,-7.60502 0,-9.21319 -0.863193,-8.35101 8.360833,-8.35101 9.224632,0 8.360832,-0.86379 8.360832,8.36083 0,6.97686 0,6.97686 -0.69188,7.66885 -0.691878,0.69199 -0.691878,0.69199 -3.333748,0.76667 -2.641871,0.0747 -2.641871,0.0747 -2.641871,-2.91042 0,-2.9851 0,-2.9851 1.151675,-2.9851 0.633421,0 1.193934,-0.0714 1.245584,-0.15875 0.05165,-0.0873 0.160893,-0.56356 0.242763,-1.05833 0.148855,-0.89958 0.148855,-0.89958 -1.245583,-0.89958 -1.394439,0 -1.394439,0 -1.394439,-1.26256 0,-1.47324 0.238836,-1.70078 1.785252,-1.70078 0.966415,0 0.966415,0 0.966415,-0.9525 0,-0.9525 0,-0.9525 -1.677093,-0.9525 -1.491297,0 -1.748554,0.0601 -2.322141,0.54278 -0.740969,0.62348 -1.077899,1.62664 -1.079585,3.21431 -0.0012,1.11125 -0.0012,1.11125 -0.953681,1.11125 -0.9525,0 -0.9525,0 -0.9525,1.05833 0,1.05833 0,1.05833 0.9525,1.05833 0.9525,0 0.9525,0 0.9525,2.96334 0,2.96333 0,2.96333 -2.804583,2.93451 -1.542521,-0.0159 -3.005775,-0.0684 -3.251676,-0.11674 z m 5.209593,-2.81777 c 0,-2.11667 0,-2.11667 -0.9525,-2.11667 -0.9525,0 -0.9525,0 -0.9525,-1.905 0,-1.905 0,-1.905 0.9525,-1.905 0.9525,0 0.9525,0 0.95368,-0.79375 0.0018,-1.22251 0.382626,-2.3215 1.079401,-3.11508 0.770892,-0.878 2.134402,-1.23633 4.316918,-1.13448 1.481667,0.0691 1.481667,0.0691 1.542825,1.92123 0.06116,1.85208 0.06116,1.85208 -1.42875,1.85208 -1.489908,0 -1.489908,0 -1.489908,0.635 0,0.635 0,0.635 1.504613,0.635 1.452885,0 1.500708,0.0164 1.391023,0.47625 -0.06247,0.26194 -0.176057,0.9525 -0.252405,1.53458 -0.239846,1.82859 -0.215424,1.79917 -1.493328,1.79917 -1.149903,0 -1.149903,0 -1.149903,2.1371 0,2.1371 0,2.1371 2.005295,2.06375 3.161327,-0.11563 2.968867,0.37621 2.968867,-7.58752 0,-6.53394 -0.001,-6.55108 -0.482125,-7.03203 -0.480954,-0.48096 -0.498095,-0.48213 -7.032037,-0.48213 -6.532669,0 -6.551176,0.001 -7.032037,0.48183 -0.477448,0.47715 -0.48266,0.54292 -0.536742,6.77333 -0.05864,6.75533 -0.01439,7.08816 1.011284,7.60713 0.322795,0.16332 1.401366,0.26683 2.800412,0.26875 2.275417,0.003 2.275417,0.003 2.275417,-2.11354 z"
         id="path16" /></g></g></svg>
