<?xml version="1.0" encoding="UTF-8" standalone="no"?>
<!-- Created with Inkscape (http://www.inkscape.org/) -->

<svg
   width="25.4mm"
   height="25.4mm"
   viewBox="0 0 25.4 25.4"
   version="1.1"
   id="svg1"
   xml:space="preserve"
   inkscape:version="1.3.2 (091e20e, 2023-11-25, custom)"
   sodipodi:docname="instagram.svg"
   xmlns:inkscape="http://www.inkscape.org/namespaces/inkscape"
   xmlns:sodipodi="http://sodipodi.sourceforge.net/DTD/sodipodi-0.dtd"
   xmlns="http://www.w3.org/2000/svg"
   xmlns:svg="http://www.w3.org/2000/svg"><sodipodi:namedview
     id="namedview1"
     pagecolor="#505050"
     bordercolor="#eeeeee"
     borderopacity="1"
     inkscape:showpageshadow="0"
     inkscape:pageopacity="0"
     inkscape:pagecheckerboard="0"
     inkscape:deskcolor="#d1d1d1"
     inkscape:document-units="mm"
     inkscape:zoom="5.6568543"
     inkscape:cx="22.892582"
     inkscape:cy="54.358834"
     inkscape:window-width="1920"
     inkscape:window-height="991"
     inkscape:window-x="-9"
     inkscape:window-y="-9"
     inkscape:window-maximized="1"
     inkscape:current-layer="layer1" /><defs
     id="defs1" /><g
     inkscape:label="Layer 1"
     inkscape:groupmode="layer"
     id="layer1"
     transform="translate(-87.150574,-112.76061)"><g
       id="g1"
       style="fill:#000000;fill-opacity:1"
       transform="matrix(1.5171812,0,0,1.5206379,-53.761107,-65.794682)"><path
         style="fill:#000000;fill-opacity:1"
         d="m 97.649749,134.04226 c -2.41707,-0.25574 -3.890396,-1.37039 -4.476706,-3.38687 -0.394332,-1.35622 -0.394332,-8.4413 0,-9.79751 0.377561,-1.29854 1.270141,-2.34539 2.512579,-2.94684 0.961175,-0.4653 1.238591,-0.48973 5.562458,-0.48973 4.32387,0 4.60129,0.0244 5.56246,0.48973 1.24244,0.60145 2.13502,1.6483 2.51258,2.94684 0.39433,1.35621 0.39433,8.44129 0,9.79751 -0.37465,1.28852 -1.27241,2.34969 -2.46024,2.90804 -0.82374,0.3872 -1.4452,0.46317 -4.39829,0.53766 -1.89145,0.0477 -4.058132,0.0212 -4.814841,-0.0588 z m 8.932251,-1.68191 c 0.43069,-0.2677 1.00219,-0.83911 1.27,-1.2698 0.46886,-0.75405 0.48692,-0.95237 0.48692,-5.34938 0,-4.56629 0,-4.56629 -0.58118,-5.44451 -1.02854,-1.55422 -1.33445,-1.63086 -6.50966,-1.63086 -5.175209,0 -5.481114,0.0766 -6.50965,1.63086 -0.581181,0.87822 -0.581181,0.87822 -0.581181,5.44451 0,4.37789 0.0198,4.59814 0.479978,5.33814 0.567307,0.91229 1.356181,1.47297 2.377522,1.68979 0.407459,0.0865 2.550584,0.13944 4.762501,0.11763 3.79171,-0.0374 4.06644,-0.0675 4.80475,-0.52638 z m -7.133084,-2.93452 c -1.480836,-0.78243 -2.2225,-2.00756 -2.2225,-3.67128 0,-2.30559 1.669052,-4.01958 3.914204,-4.01958 2.29747,0 4.12913,1.78399 4.12913,4.02166 0,1.54838 -1.05025,3.12941 -2.48029,3.7338 -0.9062,0.383 -2.55372,0.35114 -3.340544,-0.0646 z m 3.862914,-1.85573 c 0.56835,-0.61874 0.68792,-0.91854 0.68792,-1.72478 0,-1.9814 -1.16821,-2.95604 -3.43253,-2.86378 -0.34964,0.0142 -0.855899,0.3043 -1.291606,0.74001 -1.224543,1.22454 -1.23044,2.83973 -0.01481,4.05536 1.153276,1.15327 2.882816,1.06498 4.051026,-0.20681 z m 1.71692,-5.92081 c -0.31404,-0.68925 0.0843,-1.2331 0.83653,-1.14211 1.16219,0.14058 1.13492,1.4725 -0.033,1.61209 -0.42777,0.0511 -0.61634,-0.0592 -0.80352,-0.46998 z"
         id="path1" /></g></g></svg>
