<?xml version="1.0" encoding="UTF-8" standalone="no"?>
<!-- Created with Inkscape (http://www.inkscape.org/) -->

<svg
   width="25.4mm"
   height="25.4mm"
   viewBox="0 0 25.4 25.4"
   version="1.1"
   id="svg1"
   xml:space="preserve"
   inkscape:version="1.3.2 (091e20e, 2023-11-25, custom)"
   sodipodi:docname="pinterest.svg"
   xmlns:inkscape="http://www.inkscape.org/namespaces/inkscape"
   xmlns:sodipodi="http://sodipodi.sourceforge.net/DTD/sodipodi-0.dtd"
   xmlns="http://www.w3.org/2000/svg"
   xmlns:svg="http://www.w3.org/2000/svg"><sodipodi:namedview
     id="namedview1"
     pagecolor="#505050"
     bordercolor="#eeeeee"
     borderopacity="1"
     inkscape:showpageshadow="0"
     inkscape:pageopacity="0"
     inkscape:pagecheckerboard="0"
     inkscape:deskcolor="#d1d1d1"
     inkscape:document-units="mm"
     inkscape:zoom="5.6568543"
     inkscape:cx="-6.2755727"
     inkscape:cy="56.303377"
     inkscape:window-width="1920"
     inkscape:window-height="991"
     inkscape:window-x="-9"
     inkscape:window-y="-9"
     inkscape:window-maximized="1"
     inkscape:current-layer="layer1" /><defs
     id="defs1" /><g
     inkscape:label="Layer 1"
     inkscape:groupmode="layer"
     id="layer1"
     transform="translate(-87.150574,-112.76061)"><g
       id="g24"
       transform="matrix(1.5189877,0,0,1.5149811,-40.803355,-66.942388)"
       style="fill:#000000;fill-opacity:1"><path
         style="fill:#000000;fill-opacity:1"
         d="m 87.622984,135.25543 c -1.46672,-0.37677 -2.275568,-1.0125 -2.990726,-2.35061 -0.355878,-0.66587 -0.395941,-1.26556 -0.395941,-5.92667 0,-4.6611 0.04006,-5.26079 0.395941,-5.92666 0.559526,-1.04691 0.96408,-1.46153 1.932392,-1.98044 0.799543,-0.42848 1.135303,-0.45373 6.032501,-0.45373 4.661105,0 5.260794,0.0401 5.926666,0.39594 1.046911,0.55953 1.461524,0.96408 1.980443,1.93239 0.42847,0.79955 0.45372,1.13531 0.45372,6.0325 0,4.8972 -0.0252,5.23296 -0.45372,6.0325 -0.519044,0.96855 -0.933882,1.37323 -1.980443,1.93197 -0.65287,0.34855 -1.306311,0.40029 -5.503333,0.43572 -2.619375,0.0221 -5.04825,-0.0332 -5.3975,-0.12291 z m 10.819873,-1.41119 c 0.321184,-0.24002 0.780355,-0.69945 1.020382,-1.02094 0.413386,-0.55368 0.436412,-0.86209 0.436412,-5.84515 0,-4.98306 -0.02303,-5.29146 -0.436412,-5.84515 -0.240027,-0.32149 -0.699449,-0.78091 -1.020938,-1.02093 -0.553686,-0.41339 -0.86209,-0.43642 -5.84515,-0.43642 -4.983061,0 -5.291465,0.023 -5.84515,0.43642 -1.432474,1.06949 -1.450941,1.14587 -1.523,6.29891 -0.03611,2.58207 -0.0085,5.00143 0.06134,5.37636 0.06984,0.37493 0.380414,0.98286 0.690156,1.35097 0.999018,1.18727 1.347903,1.24786 6.866273,1.19257 4.689283,-0.047 5.049732,-0.0783 5.596087,-0.48664 z m -8.166428,-2.71239 c -0.0042,-0.45125 0.192325,-1.67208 0.436693,-2.71295 0.244367,-1.04088 0.394461,-2.0831 0.333542,-2.31605 -0.289391,-1.10664 0.833206,-2.26102 1.525514,-1.56872 0.2395,0.2395 0.249696,0.47509 0.05417,1.25159 -0.407659,1.61896 -0.326544,2.2212 0.321064,2.38374 1.105397,0.27743 2.016146,-0.83966 2.145789,-2.63196 0.07718,-1.06695 0.02153,-1.31272 -0.409621,-1.80916 -0.914314,-1.05277 -3.079404,-1.01631 -4.165858,0.0701 -0.762477,0.76248 -0.973246,1.70945 -0.586496,2.63507 0.160651,0.38449 0.219192,0.81703 0.130093,0.96119 -0.283755,0.45913 -1.026134,-0.14025 -1.298124,-1.04807 -0.210225,-0.70167 -0.191947,-0.98969 0.113579,-1.7897 0.656584,-1.71924 2.18486,-2.56317 4.357112,-2.40604 2.301209,0.16645 3.720562,2.00057 3.187234,4.1186 -0.4569,1.81452 -1.550751,2.82529 -3.057506,2.82529 -0.404924,0 -0.885738,-0.14951 -1.068475,-0.33225 -0.301889,-0.30189 -0.349162,-0.28738 -0.517319,0.15875 -0.101788,0.27005 -0.247582,0.77864 -0.323986,1.1302 -0.0764,0.35155 -0.370865,0.92305 -0.654355,1.27 -0.515437,0.6308 -0.515437,0.6308 -0.52305,-0.18967 z"
         id="path24" /></g></g></svg>
