<?xml version="1.0" encoding="UTF-8" standalone="no"?>
<!-- Created with Inkscape (http://www.inkscape.org/) -->

<svg
   width="25.4mm"
   height="25.4mm"
   viewBox="0 0 25.4 25.4"
   version="1.1"
   id="svg1"
   xml:space="preserve"
   inkscape:version="1.3.2 (091e20e, 2023-11-25, custom)"
   sodipodi:docname="tumblr.svg"
   xmlns:inkscape="http://www.inkscape.org/namespaces/inkscape"
   xmlns:sodipodi="http://sodipodi.sourceforge.net/DTD/sodipodi-0.dtd"
   xmlns="http://www.w3.org/2000/svg"
   xmlns:svg="http://www.w3.org/2000/svg"><sodipodi:namedview
     id="namedview1"
     pagecolor="#505050"
     bordercolor="#eeeeee"
     borderopacity="1"
     inkscape:showpageshadow="0"
     inkscape:pageopacity="0"
     inkscape:pagecheckerboard="0"
     inkscape:deskcolor="#d1d1d1"
     inkscape:document-units="mm"
     inkscape:zoom="5.6568543"
     inkscape:cx="22.185475"
     inkscape:cy="55.949824"
     inkscape:window-width="1920"
     inkscape:window-height="991"
     inkscape:window-x="-9"
     inkscape:window-y="-9"
     inkscape:window-maximized="1"
     inkscape:current-layer="layer1" /><defs
     id="defs1" /><g
     inkscape:label="Layer 1"
     inkscape:groupmode="layer"
     id="layer1"
     transform="translate(-87.150574,-112.76061)"><g
       id="g26"
       transform="matrix(1.4992504,0,0,1.5030879,-28.631584,-66.247124)"
       style="fill:#000000;fill-opacity:1"><path
         style="fill:#000000;fill-opacity:1"
         d="m 78.716831,135.65366 c -1.414094,-0.71791 -1.481009,-1.08397 -1.481009,-8.10195 0,-9.11542 -0.640646,-8.50349 8.814544,-8.41944 6.248589,0.0555 6.617465,0.0807 7.06713,0.48194 0.983122,0.87724 1.051002,1.3899 1.051002,7.9375 0,6.54761 -0.06788,7.06026 -1.051002,7.9375 -0.449665,0.40124 -0.818541,0.4264 -7.06713,0.48195 -5.969094,0.0531 -6.662777,0.023 -7.333535,-0.3175 z m 14.017335,-1.06991 c 0.480564,-0.48086 0.481832,-0.49937 0.481832,-7.03204 0,-6.53394 -0.0012,-6.55108 -0.482129,-7.03203 -0.480955,-0.48096 -0.498096,-0.48213 -7.032038,-0.48213 -6.532669,0 -6.551176,0.001 -7.032037,0.48183 -0.477448,0.47715 -0.48266,0.54292 -0.536742,6.77333 -0.05863,6.7545 -0.01495,7.08328 1.011284,7.61195 0.39889,0.20548 2.036229,0.25733 6.816497,0.21583 6.230411,-0.0541 6.29618,-0.0593 6.773333,-0.53674 z m -6.72239,-1.17439 c -1.766577,-0.68314 -2.214945,-1.54283 -2.214945,-4.24686 0,-2.00856 0,-2.00856 -0.79375,-2.07426 -0.79375,-0.0657 -0.79375,-0.0657 -0.856765,-1.38855 -0.06078,-1.27584 -0.04197,-1.33118 0.529167,-1.55719 1.130599,-0.4474 1.228859,-0.54456 1.544682,-1.52728 0.3175,-0.98795 0.3175,-0.98795 1.534583,-0.98906 1.217083,-0.001 1.217083,-0.001 1.217083,1.16305 0,1.16417 0,1.16417 1.164167,1.16417 1.164167,0 1.164167,0 1.164167,1.57644 0,1.57644 0,1.57644 -1.11125,1.64042 -1.11125,0.064 -1.11125,0.064 -1.11125,1.54564 0,1.48167 0,1.48167 1.11125,1.54565 1.11125,0.064 1.11125,0.064 1.11125,1.61573 0,1.43029 -0.03728,1.56174 -0.47625,1.67938 -0.73959,0.1982 -2.10346,0.12677 -2.812139,-0.14728 z m 2.401583,-1.46556 c 0.06569,-0.79375 0.06569,-0.79375 -0.788871,-0.79375 -1.2682,0 -1.532441,-0.5242 -1.454998,-2.88638 0.06151,-1.87612 0.06151,-1.87612 1.172758,-1.9401 1.109812,-0.0639 1.11125,-0.0649 1.11125,-0.78269 0,-0.71778 -0.0014,-0.71879 -1.11125,-0.78269 -1.11125,-0.064 -1.11125,-0.064 -1.175228,-1.17523 -0.05345,-0.9284 -0.130186,-1.11125 -0.466345,-1.11125 -0.270894,0 -0.534594,0.29892 -0.807039,0.91483 -0.287579,0.65012 -0.627297,1.02047 -1.174071,1.27993 -0.623294,0.29577 -0.7694,0.48138 -0.7694,0.9774 0,0.55475 0.0746,0.61846 0.79375,0.67798 0.79375,0.0657 0.79375,0.0657 0.899583,2.49986 0.06084,1.39929 0.221487,2.63665 0.377864,2.91042 0.149617,0.26194 0.292492,0.47769 0.3175,0.47944 0.02501,0.002 0.426469,0.14268 0.892136,0.31316 0.465667,0.17049 1.132417,0.28812 1.481667,0.2614 0.570603,-0.0437 0.641662,-0.12908 0.700694,-0.84233 z"
         id="path26" /></g></g></svg>
