<?xml version="1.0" encoding="UTF-8" standalone="no"?>
<!-- Created with Inkscape (http://www.inkscape.org/) -->

<svg
   width="25.4mm"
   height="25.4mm"
   viewBox="0 0 25.4 25.4"
   version="1.1"
   id="svg1"
   xml:space="preserve"
   inkscape:version="1.3.2 (091e20e, 2023-11-25, custom)"
   sodipodi:docname="twitter.svg"
   xmlns:inkscape="http://www.inkscape.org/namespaces/inkscape"
   xmlns:sodipodi="http://sodipodi.sourceforge.net/DTD/sodipodi-0.dtd"
   xmlns="http://www.w3.org/2000/svg"
   xmlns:svg="http://www.w3.org/2000/svg"><sodipodi:namedview
     id="namedview1"
     pagecolor="#505050"
     bordercolor="#eeeeee"
     borderopacity="1"
     inkscape:showpageshadow="0"
     inkscape:pageopacity="0"
     inkscape:pagecheckerboard="0"
     inkscape:deskcolor="#d1d1d1"
     inkscape:document-units="mm"
     inkscape:zoom="5.6568543"
     inkscape:cx="22.185475"
     inkscape:cy="54.53561"
     inkscape:window-width="1920"
     inkscape:window-height="991"
     inkscape:window-x="-9"
     inkscape:window-y="-9"
     inkscape:window-maximized="1"
     inkscape:current-layer="layer1" /><defs
     id="defs1" /><g
     inkscape:label="Layer 1"
     inkscape:groupmode="layer"
     id="layer1"
     transform="translate(-87.150574,-112.76061)"><g
       id="g19"
       style="fill:#000000;fill-opacity:1"
       transform="matrix(1.8780444,0,0,1.8780444,-83.826776,-111.54703)"><path
         style="fill:#000000;fill-opacity:1"
         d="m 94.003433,131.96025 c -1.141359,-0.20314 -2.963333,-1.16869 -2.963333,-1.57041 0,-0.28196 0.154333,-0.39443 0.541269,-0.39443 0.297699,0 0.965156,-0.10673 1.483238,-0.23719 0.941968,-0.23719 0.941968,-0.23719 0.199564,-1.05894 -0.408323,-0.45196 -0.753392,-0.94054 -0.76682,-1.08572 -0.05532,-0.59809 -0.09847,-0.71246 -0.4825,-1.27904 -0.303069,-0.44713 -0.420591,-1.07363 -0.480915,-2.56371 -0.06865,-1.6957 -0.02357,-2.04145 0.321738,-2.46789 0.401571,-0.49592 0.401571,-0.49592 1.492279,0.48472 0.599889,0.53935 1.540469,1.14611 2.090177,1.34836 1.277116,0.46987 1.447938,0.62573 1.119506,1.02147 -0.233871,0.2818 -0.38753,0.27146 -1.338981,-0.0901 -0.591136,-0.22462 -1.446077,-0.70676 -1.89987,-1.07144 -0.453792,-0.36468 -0.877828,-0.6103 -0.942302,-0.54583 -0.221046,0.22105 0.145335,1.16286 0.716382,1.84151 0.571223,0.67886 0.571223,0.67886 0.08097,1.07584 -0.424705,0.3439 -0.451545,0.44366 -0.200744,0.74607 0.15923,0.19201 0.599071,0.4785 0.977425,0.63665 0.799641,0.33425 0.857306,0.56256 0.249603,0.98821 -0.438314,0.307 -0.438314,0.307 0.0471,0.647 0.266976,0.187 0.705332,0.33999 0.974124,0.33999 0.268792,0 0.548216,0.15507 0.620942,0.34459 0.164918,0.42977 -0.583205,1.04203 -1.692899,1.38547 -0.69703,0.21573 -0.75479,0.27859 -0.425371,0.46294 0.209649,0.11733 1.096471,0.20958 1.970717,0.205 3.763505,-0.0197 6.665918,-2.73046 6.971848,-6.51152 0.16821,-2.07881 0.10934,-2.27909 -0.82837,-2.81856 -1.865261,-1.0731 -3.601441,-0.13594 -3.601441,1.944 0,0.59807 -0.08276,0.75475 -0.398657,0.75475 -0.817672,0 -0.664348,-1.93319 0.243109,-3.06525 0.955383,-1.19186 2.805459,-1.44891 4.139069,-0.5751 0.40766,0.26711 0.62064,0.28117 1.1823,0.0781 0.37679,-0.13625 0.79191,-0.24773 0.9225,-0.24773 0.39276,0 0.27475,2.04186 -0.1497,2.59018 -0.20393,0.26344 -0.4338,0.95524 -0.51081,1.53732 -0.64207,4.85277 -4.893241,7.99926 -9.661144,7.15067 z"
         id="path19" /></g></g></svg>
